<?xml version="1.0" encoding="UTF-8"?> <svg xmlns="http://www.w3.org/2000/svg" id="a2f0a726-3538-42c5-8d54-f014e8ea99aa" data-name="Layer 1" width="670.33" height="401.64" viewBox="0 0 670.33 401.64"><defs><style> .b40b4e91-f300-40a8-a5dd-c9b5e806c5ea { fill: #0c251d; } .a2ecd49c-921f-4f26-9a58-31b6ddd44d64 { fill: #f47b20; } </style></defs><g id="ae1e5e9d-3a30-4131-af6d-199c78e14211" data-name="second harvest of silicon valley"><g><path class="b40b4e91-f300-40a8-a5dd-c9b5e806c5ea" d="M100.78,382.72h0c-3.25,0-5.42-3.25-5.42-7.03,0-4.87,3.79-8.65,7.59-8.65,3.25,0,5.42,2.7,5.42,6.48C108.37,378.39,104.57,382.72,100.78,382.72Zm2.71-19.46h0c-6.5,0-11.92,5.94-11.92,12.97,0,5.41,3.79,9.73,8.67,9.73,6.5,0,11.92-5.95,11.92-12.97C112.16,367.58,108.37,363.26,103.49,363.26Z"></path><path class="b40b4e91-f300-40a8-a5dd-c9b5e806c5ea" d="M137.09,349.2h0c-.54-1.08-2.71-2.16-5.42-2.16-4.88,0-8.13,2.7-9.21,9.19l-1.08,7.58h-3.25a1.1614,1.1614,0,0,0-1.08,1.08l-.54,1.08a1.1614,1.1614,0,0,0,1.08,1.08h3.25l-4.88,34.05c0,.54.54.54,1.08.54h1.63a2.014,2.014,0,0,0,1.63-.54l4.34-34.05h5.96a1.1612,1.1612,0,0,0,1.08-1.08v-1.08c.54-.54,0-1.08-.54-1.08h-5.96l1.08-7.58c.54-4.32,2.71-5.94,4.88-5.94a6.1217,6.1217,0,0,1,3.79,1.63c0,.54.54.54,1.08,0l1.08-1.63C137.63,349.74,137.63,349.2,137.09,349.2Z"></path><path class="b40b4e91-f300-40a8-a5dd-c9b5e806c5ea" d="M166.89,363.26h0c-4.34-2.17-6.5-3.79-6.5-6.49,0-1.63,1.63-3.78,4.88-3.78s7.59,2.7,8.13,3.24a1.0438,1.0438,0,0,0,1.63-.54l2.17-3.24a1.6425,1.6425,0,0,0,0-2.16,23.471,23.471,0,0,0-11.38-3.24c-8.67,0-12.46,5.41-12.46,10.26,0,6.49,4.88,9.73,10.3,11.9,4.88,1.63,7.04,3.78,7.04,6.48,0,2.16-2.17,4.32-4.88,4.32-3.79,0-8.13-3.24-8.67-3.78a2.014,2.014,0,0,0-1.63.54l-2.17,3.24c-.54,1.08,0,1.08,0,1.63a19.843,19.843,0,0,0,12.46,4.32c8.13,0,13.01-4.87,13.01-10.82C178.81,368.12,172.85,364.88,166.89,363.26Z"></path><path class="b40b4e91-f300-40a8-a5dd-c9b5e806c5ea" d="M192.36,347.58h-5.42a1.1613,1.1613,0,0,0-1.08,1.08v35.68a1.1615,1.1615,0,0,0,1.08,1.08h5.42a1.1614,1.1614,0,0,0,1.08-1.08V348.66A1.1613,1.1613,0,0,0,192.36,347.58Z"></path><path class="b40b4e91-f300-40a8-a5dd-c9b5e806c5ea" d="M225.41,378.93H210.79V348.66a1.1614,1.1614,0,0,0-1.08-1.08h-4.88a1.1614,1.1614,0,0,0-1.08,1.08v35.67a1.1614,1.1614,0,0,0,1.08,1.08h20.59a1.1614,1.1614,0,0,0,1.08-1.08v-4.32A1.1629,1.1629,0,0,0,225.41,378.93Z"></path><path class="b40b4e91-f300-40a8-a5dd-c9b5e806c5ea" d="M238.42,347.58H233a1.1613,1.1613,0,0,0-1.08,1.08v35.68a1.1615,1.1615,0,0,0,1.08,1.08h5.42a1.1614,1.1614,0,0,0,1.08-1.08V348.66A1.1613,1.1613,0,0,0,238.42,347.58Z"></path><path class="b40b4e91-f300-40a8-a5dd-c9b5e806c5ea" d="M280.7,379.47h0l-3.25-3.78h-1.63a12.3367,12.3367,0,0,1-8.67,3.24,12.7022,12.7022,0,0,1,0-25.4,15.4738,15.4738,0,0,1,8.67,3.24,1.0226,1.0226,0,0,0,1.63,0l3.25-3.24a1.0225,1.0225,0,0,0,0-1.63,19.86,19.86,0,0,0-13.55-4.87c-11.38,0-20.59,8.65-20.59,19.47,0,10.81,9.22,19.45,20.59,19.45a18.87,18.87,0,0,0,13.55-5.41C281.24,380.55,281.24,379.47,280.7,379.47Z"></path><path class="b40b4e91-f300-40a8-a5dd-c9b5e806c5ea" d="M305.07,378.93h0c-7.04,0-13.01-5.41-13.01-12.43,0-7.03,5.96-12.43,13.01-12.43,7.06,0,13.02,5.41,13.02,12.43S312.12,378.93,305.07,378.93Zm0-31.89h0c-10.84,0-20.05,8.65-20.05,19.45,0,10.81,9.21,19.47,20.05,19.47,11.39,0,20.59-8.65,20.59-19.47C325.67,355.68,316.46,347.04,305.07,347.04Z"></path><path class="b40b4e91-f300-40a8-a5dd-c9b5e806c5ea" d="M364.68,347.58H359.8a1.1613,1.1613,0,0,0-1.08,1.08v22.15l-23.3-23.78h-1.63a1.1613,1.1613,0,0,0-1.08,1.08v36.22a1.1615,1.1615,0,0,0,1.08,1.08h5.42c.54,0,.54-.54.54-1.08V361.08h.54l23.3,24.87h1.08a1.171,1.171,0,0,0,1.09-1.08V348.65A1.152,1.152,0,0,0,364.68,347.58Z"></path><path class="b40b4e91-f300-40a8-a5dd-c9b5e806c5ea" d="M419.96,347.58H414c-.54,0-.54,0-1.08.54l-10.84,23.24-10.84-23.24c0-.54-.54-.54-1.08-.54h-5.42c-1.08,0-1.63.54-1.08,1.08L401,385.42c0,.54.54.54,1.08.54h.54a.5289.5289,0,0,0,.54-.54l17.34-36.76C421.04,348.12,420.5,347.58,419.96,347.58Z"></path><path class="b40b4e91-f300-40a8-a5dd-c9b5e806c5ea" d="M430.8,372.44h0l5.42-11.9h.54l5.42,11.9Zm24.38,11.9h0l-17.34-36.76c0-.54-.54-.54-1.08-.54h-.54c-.54,0-.54,0-.54.54l-17.89,36.76c0,.54,0,1.08,1.08,1.08h4.89c1.08,0,1.63-.54,1.63-1.08l2.71-5.94h16.8l2.71,5.94c.54,1.08,1.08,1.08,1.63,1.08h4.88C455.18,385.42,455.72,384.88,455.18,384.34Z"></path><path class="b40b4e91-f300-40a8-a5dd-c9b5e806c5ea" d="M481.73,378.93h-14.1V348.66a1.1614,1.1614,0,0,0-1.08-1.08h-5.42a1.1614,1.1614,0,0,0-1.08,1.08v35.67a1.1614,1.1614,0,0,0,1.08,1.08h20.59a1.1615,1.1615,0,0,0,1.08-1.08v-4.32A1.1365,1.1365,0,0,0,481.73,378.93Z"></path><path class="b40b4e91-f300-40a8-a5dd-c9b5e806c5ea" d="M510.45,378.93H495.82V348.66a1.1614,1.1614,0,0,0-1.08-1.08h-4.88a1.1615,1.1615,0,0,0-1.08,1.08v35.67a1.1614,1.1614,0,0,0,1.08,1.08h20.59a1.1615,1.1615,0,0,0,1.08-1.08v-4.32A1.1535,1.1535,0,0,0,510.45,378.93Z"></path><path class="b40b4e91-f300-40a8-a5dd-c9b5e806c5ea" d="M540.81,354.07h0a1.1613,1.1613,0,0,0,1.08-1.08v-4.32a1.1613,1.1613,0,0,0-1.08-1.08H518.05a1.1614,1.1614,0,0,0-1.08,1.08v35.68a1.1614,1.1614,0,0,0,1.08,1.08h22.76a1.1613,1.1613,0,0,0,1.08-1.08v-4.34a1.1613,1.1613,0,0,0-1.08-1.08H524.54v-9.19H538.1a1.1614,1.1614,0,0,0,1.08-1.08v-4.87a1.1615,1.1615,0,0,0-1.08-1.08H524.54v-8.65h16.27Z"></path><path class="b40b4e91-f300-40a8-a5dd-c9b5e806c5ea" d="M577.1,347.58h-5.96c-.54,0-.54,0-1.08.54l-8.67,12.43-9.21-12.43a.5288.5288,0,0,0-.54-.54h-5.96c-1.08,0-1.63.54-1.08,1.63l13.01,17.84v17.3a1.1614,1.1614,0,0,0,1.08,1.08h4.88a1.1615,1.1615,0,0,0,1.08-1.08v-17.3l13.01-17.84C578.19,348.12,577.65,347.58,577.1,347.58Z"></path><path class="b40b4e91-f300-40a8-a5dd-c9b5e806c5ea" d="M18.96,298.39h0c-5.96-2.7-9.21-4.87-9.21-8.65,0-2.16,2.71-4.87,7.04-4.87s10.3,3.25,10.84,3.79a1.983,1.983,0,0,0,2.71-1.08l2.71-3.79c.54-1.08.54-2.16-.54-2.7-1.08-1.08-7.59-4.87-15.17-4.87C4.88,276.22,0,283.79,0,290.28c0,9.19,7.04,13.5,14.63,16.21,6.5,2.7,9.75,5.41,9.75,9.19,0,3.24-3.25,5.94-7.04,5.94-5.42,0-11.38-4.87-11.92-4.87a1.892,1.892,0,0,0-2.71.54L0,322.16a3.2466,3.2466,0,0,0,.54,2.16,26.5315,26.5315,0,0,0,16.8,5.95c10.84,0,17.88-7.58,17.88-15.14C35.21,305.41,26.54,301.09,18.96,298.39Z"></path><path class="b40b4e91-f300-40a8-a5dd-c9b5e806c5ea" d="M78.02,285.95h0a1.7358,1.7358,0,0,0,1.63-1.63v-5.94a1.4421,1.4421,0,0,0-1.63-1.63H46.59a1.7344,1.7344,0,0,0-1.63,1.63v49.74c0,.54,1.08,1.08,1.63,1.08H78.02c1.08,0,1.63-.54,1.63-1.08v-6.49A1.7345,1.7345,0,0,0,78.02,320H55.26V307.03H74.23c1.08,0,1.63-.54,1.63-1.08v-6.49a1.7344,1.7344,0,0,0-1.63-1.63H55.26v-11.9H78.02v.02Z"></path><path class="b40b4e91-f300-40a8-a5dd-c9b5e806c5ea" d="M133.29,320.54h0l-4.88-4.32c-.54-.54-1.08-.54-2.17,0A20.4659,20.4659,0,0,1,114.86,320c-10.3,0-17.34-7.57-17.34-17.3a17.09,17.09,0,0,1,17.34-17.3,18.6452,18.6452,0,0,1,11.38,4.34c1.08.54,1.63.54,2.17,0l4.88-4.87a1.0225,1.0225,0,0,0,0-1.63c-5.42-4.87-11.38-7.02-18.97-7.02-15.17,0-27.64,11.9-27.64,27.02,0,15.14,12.46,27.03,27.64,27.03a28.0609,28.0609,0,0,0,18.97-7.58A1.6071,1.6071,0,0,0,133.29,320.54Z"></path><path class="b40b4e91-f300-40a8-a5dd-c9b5e806c5ea" d="M166.89,320.54h0c-9.75,0-17.88-8.11-17.88-17.3,0-9.72,8.13-17.3,17.88-17.3s17.88,7.58,17.88,17.3C184.77,312.45,176.64,320.54,166.89,320.54Zm0-44.31h0c-15.17,0-27.64,11.9-27.64,27.02,0,15.14,12.47,27.03,27.64,27.03,15.71,0,27.64-11.9,27.64-27.03S182.6,276.23,166.89,276.23Z"></path><path class="b40b4e91-f300-40a8-a5dd-c9b5e806c5ea" d="M249.26,276.77h-7.04a1.442,1.442,0,0,0-1.63,1.63v30.81l-32.51-32.98h-1.63c-1.08,0-1.63.54-1.63,1.08v50.82c0,.54.54,1.08,1.63,1.08h7.04c.54,0,1.63-.54,1.63-1.08V295.69l31.97,34.6h2.17a2.4426,2.4426,0,0,0,1.63-1.63V278.38A1.7383,1.7383,0,0,0,249.26,276.77Z"></path><path class="b40b4e91-f300-40a8-a5dd-c9b5e806c5ea" d="M283.41,320.01h-8.67V285.96h8.67c10.3,0,17.34,7.03,17.34,17.3C300.73,312.98,293.69,320.01,283.41,320.01Zm1.08-43.24H266.07a1.7343,1.7343,0,0,0-1.63,1.63v49.74c0,.54,1.08,1.08,1.63,1.08h18.42c14.63,0,27.09-11.89,27.09-25.95C311.58,288.66,299.11,276.77,284.49,276.77Z"></path><path class="b40b4e91-f300-40a8-a5dd-c9b5e806c5ea" d="M382.57,276.77h-7.04c-.54,0-1.08.54-1.08,1.63v19.47H348.98V278.39a1.4421,1.4421,0,0,0-1.63-1.63h-7.04a1.7344,1.7344,0,0,0-1.63,1.63v49.74c0,.54,1.08,1.08,1.63,1.08h7.04c1.08,0,1.63-.54,1.63-1.08V307.05h25.47v21.08a1.1614,1.1614,0,0,0,1.08,1.08h7.04c1.08,0,1.63-.54,1.63-1.08V278.39A1.443,1.443,0,0,0,382.57,276.77Z"></path><path class="b40b4e91-f300-40a8-a5dd-c9b5e806c5ea" d="M409.12,311.36h0l7.59-16.21,8.14,16.21Zm33.6,16.22h0l-23.84-50.82c-.54-.54-.54-.54-1.63-.54h-.54a2.0142,2.0142,0,0,0-1.63.54l-23.84,50.82c-.54.54,0,1.63,1.08,1.63h7.04c1.08,0,1.63-.54,2.17-1.63l3.79-8.12h23.3l3.79,8.12c.54,1.08,1.08,1.63,2.17,1.63h6.5A1.7436,1.7436,0,0,0,442.72,327.58Z"></path><path class="b40b4e91-f300-40a8-a5dd-c9b5e806c5ea" d="M472.52,300.55H459.51v-14.6h13.01c3.79,0,7.6,3.25,7.6,7.03A7.7593,7.7593,0,0,1,472.52,300.55Zm5.96,7.57h0c7.04-2.71,11.38-8.11,11.38-15.14,0-9.19-7.59-16.21-16.81-16.21H450.83c-.54,0-1.08.54-1.08,1.63v49.74a1.1614,1.1614,0,0,0,1.08,1.08h7.04c1.08,0,1.63-.54,1.63-1.08V308.67h8.67l10.31,20a1.8853,1.8853,0,0,0,1.08.54h8.13c1.63,0,2.17-1.08,1.63-2.16Z"></path><path class="b40b4e91-f300-40a8-a5dd-c9b5e806c5ea" d="M544.06,276.77h-8.13a1.1613,1.1613,0,0,0-1.08,1.08l-15.18,31.9h-.54l-14.63-31.9a1.1614,1.1614,0,0,0-1.08-1.08h-8.13c-1.08,0-1.63,1.08-1.08,2.16l23.84,50.28a1.1615,1.1615,0,0,0,1.08,1.08h1.08a1.1615,1.1615,0,0,0,1.08-1.08l23.84-50.28C545.69,277.84,545.14,276.77,544.06,276.77Z"></path><path class="b40b4e91-f300-40a8-a5dd-c9b5e806c5ea" d="M585.23,285.95h0a1.7358,1.7358,0,0,0,1.63-1.63v-5.94a1.4421,1.4421,0,0,0-1.63-1.63H553.8a1.4421,1.4421,0,0,0-1.63,1.63v49.74c0,.54.54,1.08,1.63,1.08h31.43c1.08,0,1.63-.54,1.63-1.08v-6.49a1.7345,1.7345,0,0,0-1.63-1.63H562.47V307.03h18.97c.54,0,1.63-.54,1.63-1.08v-6.49a2.4428,2.4428,0,0,0-1.63-1.63H562.47v-11.9h22.76Z"></path><path class="b40b4e91-f300-40a8-a5dd-c9b5e806c5ea" d="M613.42,298.39h0c-5.96-2.7-8.67-4.87-8.67-8.65,0-2.16,2.17-4.87,6.5-4.87,4.34,0,10.3,3.25,10.84,3.79a1.9831,1.9831,0,0,0,2.71-1.08l2.71-3.79c.54-1.08.54-2.16-.54-2.7-1.08-1.08-7.04-4.87-15.17-4.87-12.46,0-17.34,7.57-17.34,14.06,0,9.19,7.04,13.5,14.63,16.21,6.5,2.7,9.75,5.41,9.75,9.19,0,3.24-3.25,5.94-7.04,5.94-4.88,0-11.38-4.87-11.92-4.87-.54-.54-1.63-.54-2.71.54l-2.71,4.87c-.54,1.08,0,1.08.54,2.16a26.5315,26.5315,0,0,0,16.8,5.95c11.38,0,17.88-7.58,17.88-15.14C629.67,305.41,621.01,301.09,613.42,298.39Z"></path><path class="b40b4e91-f300-40a8-a5dd-c9b5e806c5ea" d="M668.69,276.77h-33.6a1.442,1.442,0,0,0-1.63,1.63v5.94a1.7345,1.7345,0,0,0,1.63,1.63h11.93v42.17c0,.54.54,1.08,1.63,1.08h7.04c.54,0,1.63-.54,1.63-1.08V285.97H668.7a1.7357,1.7357,0,0,0,1.63-1.63v-5.95A1.4461,1.4461,0,0,0,668.69,276.77Z"></path><path class="a2ecd49c-921f-4f26-9a58-31b6ddd44d64" d="M313.21,182.7h0l17.34,9.19v-7.58c0-16.21-8.13-30.8-20.59-37.84l-17.35-9.19v7.57C292.61,161.08,300.73,175.68,313.21,182.7Z"></path><path class="a2ecd49c-921f-4f26-9a58-31b6ddd44d64" d="M309.96,100.01h0l-17.35-9.19V98.4c0,15.67,8.13,30.8,20.59,37.84l17.34,9.19v-7.57C330.55,121.63,322.42,107.03,309.96,100.01Z"></path><path class="a2ecd49c-921f-4f26-9a58-31b6ddd44d64" d="M330.55,214.6h0c0-4.87-1.08-11.9-9.21-17.3-6.5-4.87-36.31-12.43-37.39-52.43V122.16l7.59,4.32a55.9985,55.9985,0,0,1-7.59-28.1V75.67l7.59,4.34a58.0224,58.0224,0,0,1-7.59-28.66V20.54h8.67v3.24c0,19.47,25.47,16.76,37.93,36.76V0C253.06,2.16,191.28,65.41,191.28,142.71a141.7438,141.7438,0,0,0,34.14,92.44,353.5715,353.5715,0,0,1,105.12-17.3V214.6Z"></path><path class="a2ecd49c-921f-4f26-9a58-31b6ddd44d64" d="M309.96,53.51h0l-17.35-9.72v7.57c0,16.21,8.13,31.35,20.59,37.84l17.34,9.73V91.35C330.55,75.14,322.42,60.01,309.96,53.51Z"></path><path class="a2ecd49c-921f-4f26-9a58-31b6ddd44d64" d="M339.76,91.35h0v7.58l16.8-9.73c12.47-6.48,20.59-21.62,20.59-37.84V43.79l-16.81,9.72C347.89,60.01,339.76,75.14,339.76,91.35Z"></path><path class="a2ecd49c-921f-4f26-9a58-31b6ddd44d64" d="M339.76,184.33h0v7.58l16.8-9.19c12.47-7.02,20.59-21.62,20.59-37.84v-7.57l-16.81,9.19C347.89,153.53,339.76,168.12,339.76,184.33Z"></path><path class="a2ecd49c-921f-4f26-9a58-31b6ddd44d64" d="M377.15,90.82h0l-16.81,9.19c-12.46,7.02-20.59,21.62-20.59,37.84v7.57l16.8-9.19c12.47-7.03,20.59-22.16,20.59-37.84V90.82Z"></path><path class="a2ecd49c-921f-4f26-9a58-31b6ddd44d64" d="M339.76.01h0V60.55c12.46-20,37.39-17.3,37.39-36.76V20.55h9.21v30.8a58.0788,58.0788,0,0,1-7.59,28.66l7.59-4.34V98.38a55.9708,55.9708,0,0,1-7.59,28.1l7.59-4.32v22.71c-1.08,40-30.89,47.57-37.93,52.43-8.13,5.41-8.67,12.43-8.67,17.3v3.23c36.31.54,72.07,6.48,104.58,17.84a141.3071,141.3071,0,0,0,34.14-92.98C478.48,65.41,416.71,2.16,339.76.01Z"></path></g></g></svg> 